<svg xmlns="http://www.w3.org/2000/svg" viewBox="0 0 64 64">
  <defs>
    <linearGradient id="groq" x1="0%" y1="0%" x2="100%" y2="100%">
      <stop offset="0%" stop-color="#f857a6"/>
      <stop offset="100%" stop-color="#ff5858"/>
    </linearGradient>
  </defs>
  <path d="M32 6C16.5 6 4 16.7 4 30c0 7.8 4.3 14.8 11.2 19.3-.8 4.2-3.4 7.6-3.6 7.9-.3.4-.1.9.4 1 .2 0 6.6.6 11.6-2.5 2.7.8 5.5 1.3 8.4 1.3 15.5 0 28-10.7 28-24S47.5 6 32 6z" fill="url(#groq)"/>
  <path d="M22 34h-4v-4h4v4zm12 0h-4v-4h4v4zm12 0h-4v-4h4v4z" fill="#ffffff"/>
</svg>
