<svg xmlns="http://www.w3.org/2000/svg" viewBox="0 0 64 64" width="64" height="64" role="img" aria-label="Conoscenza ANIMA">
  <defs>
    <linearGradient id="g" x1="0" y1="0" x2="1" y2="1">
      <stop offset="0" stop-color="#5bd6c8"/>
      <stop offset="1" stop-color="#8ab4ff"/>
    </linearGradient>
  </defs>
  <rect x="5" y="5" width="54" height="54" rx="14" fill="#0b0f17"/>
  <rect x="5" y="5" width="54" height="54" rx="14" fill="url(#g)" opacity="0.14"/>
  <!-- open book -->
  <path d="M12 20c6-3 12-3 20 1 8-4 14-4 20-1v25c-6-3-12-3-20 1-8-4-14-4-20-1z" fill="none" stroke="url(#g)" stroke-width="2.6" stroke-linejoin="round"/>
  <path d="M32 21v26" stroke="url(#g)" stroke-width="2.2"/>
  <!-- download arrow into the book -->
  <path d="M32 6v9m0 0l-3.2-3.2M32 15l3.2-3.2" stroke="#8ab4ff" stroke-width="2.6" stroke-linecap="round" stroke-linejoin="round"/>
  <!-- knowledge nodes -->
  <circle cx="20" cy="30" r="1.8" fill="#5bd6c8"/>
  <circle cx="44" cy="31" r="1.8" fill="#8ab4ff"/>
  <circle cx="24" cy="38" r="1.6" fill="#8ab4ff"/>
  <circle cx="41" cy="39" r="1.6" fill="#5bd6c8"/>
</svg>
