<svg xmlns="http://www.w3.org/2000/svg" viewBox="0 0 64 64">
  <defs>
    <linearGradient id="pnt" x1="0%" y1="0%" x2="100%" y2="100%">
      <stop offset="0%" stop-color="#f12711"/>
      <stop offset="100%" stop-color="#f5af19"/>
    </linearGradient>
  </defs>
  <rect x="6" y="6" width="52" height="52" rx="14" fill="url(#pnt)"/>
  <path d="M32 16c-9.4 0-17 6.7-17 15 0 4.9 4 8 8.6 8H27c1.7 0 3 1.4 3 3 0 .8-.3 1.4-.8 2.1-.4.6-.7 1.3-.7 2.1 0 1.6 1.4 2.7 3.5 2.7 9.4 0 17-7.6 17-17S41.4 16 32 16z" fill="#ffffff"/>
  <circle cx="24" cy="29" r="2.7" fill="#f857a6"/>
  <circle cx="31" cy="24" r="2.7" fill="#3ec6ff"/>
  <circle cx="39" cy="25" r="2.7" fill="#ffd23f"/>
  <circle cx="43" cy="33" r="2.7" fill="#42d77d"/>
</svg>
