<svg xmlns="http://www.w3.org/2000/svg" viewBox="0 0 48 48" width="48" height="48">
  <defs>
    <linearGradient id="g" x1="0" y1="0" x2="1" y2="1">
      <stop offset="0" stop-color="#7c5cff"/>
      <stop offset="1" stop-color="#4ea1ff"/>
    </linearGradient>
  </defs>
  <rect x="3" y="3" width="42" height="42" rx="11" fill="#0e131d" stroke="url(#g)" stroke-width="2"/>
  <path d="M12 16a4 4 0 0 1 4-4h16a4 4 0 0 1 4 4v10a4 4 0 0 1-4 4H20l-6 5v-5h-2a0 0 0 0 1 0 0 4 4 0 0 1-4-4z"
        transform="translate(2 1)" fill="none" stroke="url(#g)" stroke-width="2.4" stroke-linejoin="round"/>
  <circle cx="19" cy="22" r="1.8" fill="url(#g)"/>
  <circle cx="25" cy="22" r="1.8" fill="url(#g)"/>
  <circle cx="31" cy="22" r="1.8" fill="url(#g)"/>
</svg>
